<svg width="300" height="300" viewBox="0 0 300 300" fill="none" xmlns="http://www.w3.org/2000/svg">
<path d="M55.8931 55.9091L94.0252 120.355H95.5025L133.819 55.9091H178.968L121.262 150.455L180.261 245H134.281L95.5025 180.462H94.0252L55.2468 245H9.45135L68.6346 150.455L10.5593 55.9091H55.8931ZM199.189 150.455V130.05L244.153 94.1335C247.6 91.3021 250.585 88.7476 253.109 86.4702C255.633 84.1927 257.602 81.8845 259.018 79.5455C260.434 77.2064 261.142 74.6212 261.142 71.7898C261.142 67.358 259.326 63.9418 255.694 61.5412C252.063 59.1406 247.662 57.9403 242.491 57.9403C236.951 57.9403 232.489 59.2945 229.103 62.0028C225.779 64.6496 224.118 68.4967 224.118 73.544H196.88C196.88 61.7258 201.189 52.4621 209.806 45.7528C218.424 38.982 229.442 35.5966 242.86 35.5966C252.032 35.5966 260.003 37.197 266.774 40.3977C273.545 43.5369 278.777 47.8149 282.47 53.2315C286.225 58.6482 288.102 64.7112 288.102 71.4204C288.102 76.8371 286.963 81.8845 284.686 86.5625C282.47 91.179 279.023 95.7339 274.345 100.227C269.728 104.659 263.758 109.306 256.433 114.169L239.998 126.357V127.372H289.395V150.455H199.189Z" fill="#DE89BE"/>
<path d="M55.8931 55.9091L94.0252 120.355H95.5025L133.819 55.9091H178.968L121.262 150.455L180.261 245H134.281L95.5025 180.462H94.0252L55.2468 245H9.45135L68.6346 150.455L10.5593 55.9091H55.8931ZM199.189 150.455V130.05L244.153 94.1335C247.6 91.3021 250.585 88.7476 253.109 86.4702C255.633 84.1927 257.602 81.8845 259.018 79.5455C260.434 77.2064 261.142 74.6212 261.142 71.7898C261.142 67.358 259.326 63.9418 255.694 61.5412C252.063 59.1406 247.662 57.9403 242.491 57.9403C236.951 57.9403 232.489 59.2945 229.103 62.0028C225.779 64.6496 224.118 68.4967 224.118 73.544H196.88C196.88 61.7258 201.189 52.4621 209.806 45.7528C218.424 38.982 229.442 35.5966 242.86 35.5966C252.032 35.5966 260.003 37.197 266.774 40.3977C273.545 43.5369 278.777 47.8149 282.47 53.2315C286.225 58.6482 288.102 64.7112 288.102 71.4204C288.102 76.8371 286.963 81.8845 284.686 86.5625C282.47 91.179 279.023 95.7339 274.345 100.227C269.728 104.659 263.758 109.306 256.433 114.169L239.998 126.357V127.372H289.395V150.455H199.189Z" fill="#FDCFF3" fill-opacity="0.2"/>
</svg>
